<svg width="38" height="38" viewBox="0 0 38 38" fill="none" xmlns="http://www.w3.org/2000/svg">
<path d="M11.3532 9.39085H15.774V21.7823C15.774 27.3664 13.0975 29.3158 8.8216 29.3158C7.77503 29.3158 6.43617 29.1413 5.56403 28.8502L6.05903 25.2721C6.79208 25.5076 7.55784 25.6253 8.32778 25.621C10.1899 25.621 11.3532 24.7771 11.3532 21.7529V9.39085ZM19.6126 24.4589C20.7758 25.0694 22.638 25.6811 24.5284 25.6811C26.565 25.6811 27.641 24.8372 27.641 23.529C27.641 22.3363 26.71 21.6091 24.354 20.7947C21.0964 19.6315 18.9443 17.8282 18.9443 14.9478C18.9443 11.603 21.7658 9.07263 26.3611 9.07263C28.6004 9.07263 30.2009 9.5087 31.3641 10.0615L30.3753 13.6101C29.1077 12.9906 27.7142 12.672 26.3033 12.6791C24.3835 12.6791 23.4524 13.5807 23.4524 14.5695C23.4524 15.82 24.5284 16.3727 27.0883 17.3615C30.5497 18.6415 32.1491 20.4447 32.1491 23.2367C32.1491 26.5237 29.6481 29.3158 24.2668 29.3158C22.0275 29.3158 19.8165 28.7053 18.711 28.0936L19.6126 24.4589Z" fill="#FFFCDD"/>
</svg>
