<svg width="40"
height="40" 
viewBox="0 0 40 40" 
 xmlns="http://www.w3.org/2000/svg">
<path 
d="M24.13 24.8048C22.8768 24.927 21.6143 24.6971 20.4846 24.1411C20.2287 23.9363 20.0174 23.6813 19.864 23.3917C19.7105 23.1021 19.6179 22.7842 19.5921 22.4574C19.5916 22.4085 19.5814 22.3602 19.5621 22.3153C19.5428 22.2704 19.5147 22.2298 19.4796 22.1957C19.4445 22.1617 19.403 22.135 19.3574 22.1172C19.3119 22.0993 19.2633 22.0907 19.2144 22.0917C18.6868 22.0853 18.1592 22.0867 17.6317 22.091C17.5395 22.0816 17.4473 22.1089 17.3751 22.167C17.3029 22.2252 17.2565 22.3094 17.246 22.4015C17.216 22.9747 17.3129 23.5475 17.5298 24.0789C17.7468 24.6104 18.0785 25.0873 18.5011 25.4757C19.5681 26.3083 20.8637 26.7957 22.2149 26.8727C23.6228 27.036 25.0477 26.9755 26.4367 26.6935C27.5033 26.4945 28.4811 25.9675 29.2338 25.1861C29.6498 24.6731 29.9287 24.0628 30.0441 23.4124C30.1596 22.762 30.1079 22.093 29.8938 21.4681C29.714 21.0277 29.4356 20.6342 29.0802 20.318C28.7247 20.0018 28.3015 19.7712 27.8431 19.6439C25.7085 18.8949 23.4026 18.9516 21.2264 18.3824C20.8486 18.2635 20.387 18.1344 20.2186 17.7344C20.1213 17.453 20.1147 17.1481 20.1996 16.8626C20.2846 16.5772 20.4569 16.3256 20.6923 16.1431C21.3756 15.7526 22.1536 15.5589 22.9402 15.5834C24.0078 15.4829 25.0839 15.6369 26.0805 16.0328C26.3798 16.2088 26.6373 16.4479 26.8349 16.7335C27.0326 17.0191 27.1657 17.3442 27.2251 17.6864C27.2279 17.7874 27.2684 17.8837 27.3386 17.9563C27.4088 18.029 27.5036 18.0728 27.6044 18.0792C28.1283 18.0898 28.6524 18.082 29.1763 18.0827C29.2671 18.0936 29.3588 18.0713 29.4346 18.0199C29.5103 17.9686 29.5649 17.8916 29.5885 17.8032C29.5931 17.0965 29.4131 16.4009 29.0662 15.7853C28.7193 15.1696 28.2176 14.6553 27.6107 14.2932C25.9357 13.5202 24.0765 13.2357 22.247 13.4725C20.9066 13.5274 19.6259 14.0419 18.6201 14.9296C18.1584 15.4273 17.8457 16.0447 17.7177 16.7114C17.5897 17.3781 17.6515 18.0674 17.8962 18.7007C18.0866 19.1249 18.3667 19.5028 18.7173 19.8083C19.0679 20.1138 19.4805 20.3397 19.9268 20.4703C22.0543 21.2388 24.386 20.9922 26.5342 21.6717C26.9528 21.8137 27.4402 22.0309 27.5685 22.4968C27.6374 22.776 27.6322 23.0684 27.5534 23.345C27.4745 23.6216 27.3248 23.8728 27.1191 24.0737C26.2257 24.6287 25.1787 24.8848 24.13 24.8048ZM33.8282 10.7292C29.6744 8.38032 25.5197 6.03356 21.3641 3.68891C20.9471 3.45576 20.4774 3.33334 19.9997 3.33334C19.5219 3.33334 19.0522 3.45576 18.6352 3.68891C14.4957 6.02647 10.356 8.36391 6.21613 10.7012C5.81339 10.9208 5.47671 11.244 5.24103 11.6375C5.00535 12.031 4.87924 12.4804 4.87579 12.9391V27.0628C4.88242 27.5298 5.01532 27.9863 5.26039 28.3839C5.50546 28.7815 5.85357 29.1054 6.26779 29.3212C7.45698 29.9684 8.61236 30.6816 9.82309 31.2859C10.5219 31.6595 11.2981 31.8653 12.0901 31.887C12.8822 31.9088 13.6685 31.7459 14.3868 31.4113C14.9242 31.0746 15.3616 30.6 15.6532 30.0368C15.9448 29.4737 16.0801 28.8426 16.0448 28.2094C16.0541 23.5483 16.0462 18.8869 16.0484 14.2256C16.0565 14.1747 16.0537 14.1226 16.0403 14.0728C16.0269 14.0229 16.0031 13.9765 15.9705 13.9365C15.9379 13.8965 15.8972 13.8639 15.8511 13.8407C15.805 13.8175 15.7545 13.8044 15.7029 13.8021C15.1739 13.7935 14.6442 13.7971 14.1152 13.8006C14.0662 13.7962 14.0169 13.8023 13.9704 13.8183C13.9239 13.8343 13.8813 13.86 13.8454 13.8936C13.8095 13.9272 13.7812 13.968 13.7622 14.0134C13.7432 14.0588 13.734 14.1076 13.7352 14.1568C13.7281 18.788 13.7366 23.4206 13.7309 28.0525C13.7321 28.3723 13.6356 28.6847 13.4541 28.948C13.2727 29.2112 13.0151 29.4127 12.7159 29.5254C12.3714 29.6273 12.0092 29.6553 11.6531 29.6076C11.297 29.56 10.955 29.4377 10.6494 29.2488C9.54769 28.6266 8.44602 28.0045 7.34438 27.3824C7.27138 27.3478 7.21074 27.2916 7.17062 27.2215C7.1305 27.1514 7.11282 27.0707 7.11998 26.9902C7.11998 22.3304 7.11998 17.6708 7.11998 13.0115C7.11232 12.9208 7.1335 12.8301 7.18049 12.7522C7.22748 12.6743 7.29789 12.6133 7.38164 12.5778C11.5075 10.254 15.6327 7.92785 19.757 5.59921C19.8286 5.55029 19.9134 5.52418 20.0001 5.52431C20.0869 5.52444 20.1715 5.5508 20.243 5.59993C24.3688 7.92442 28.4944 10.2497 32.6197 12.5758C32.7031 12.6123 32.773 12.6739 32.8196 12.752C32.8663 12.8301 32.8874 12.9208 32.8799 13.0115C32.8792 17.6705 32.8788 22.3299 32.8785 26.9896C32.8858 27.0704 32.8686 27.1515 32.8291 27.2224C32.7895 27.2932 32.7296 27.3505 32.657 27.3867C28.5943 29.684 24.5294 31.9779 20.4623 34.2685C20.268 34.3768 20.038 34.5509 19.8108 34.4198C18.7456 33.8169 17.6935 33.1906 16.6319 32.5819C16.5776 32.5404 16.5122 32.5161 16.444 32.512C16.3758 32.5079 16.3079 32.5242 16.2491 32.5589C15.7815 32.8329 15.2893 33.0626 14.7789 33.245C14.5488 33.3382 14.2657 33.3647 14.1074 33.5781C14.3092 33.7978 14.5538 33.9739 14.8261 34.0958C16.0677 34.8147 17.3099 35.5329 18.5528 36.2506C18.9639 36.5087 19.4366 36.652 19.9218 36.6655C20.4071 36.6789 20.887 36.5621 21.3118 36.3272C25.4519 33.9928 29.5918 31.6573 33.7315 29.3207C34.1454 29.1045 34.4933 28.7807 34.7384 28.3833C34.9835 27.9859 35.1168 27.5297 35.1243 27.0628V12.9391C35.1208 12.4895 34.9992 12.0487 34.7718 11.6608C34.5443 11.273 34.2189 10.9517 33.8282 10.7292Z" 

/>
</svg>
