<svg width="31" height="30" viewBox="0 0 31 30" fill="none" xmlns="http://www.w3.org/2000/svg">
<path d="M21.3807 20.6684C22.5194 20.5493 23.3833 19.5576 23.344 18.3675C23.3049 17.1774 22.3231 16.2253 21.1451 16.2253H21.0666C19.8492 16.265 18.9069 17.2964 18.9462 18.5261C18.9855 19.1212 19.221 19.6369 19.5744 19.9939C18.2393 22.652 16.1975 24.5958 13.1347 26.2223C11.0535 27.333 8.89385 27.7298 6.73421 27.4521C4.96715 27.2141 3.59281 26.4207 2.72881 25.1115C1.47234 23.1676 1.35458 21.065 2.41481 18.9626C3.16093 17.455 4.3388 16.3442 5.08492 15.7889C4.92786 15.2732 4.69221 14.4004 4.57445 13.7658C-1.1193 17.9312 -0.530238 23.5644 1.19752 26.2223C2.49328 28.2059 5.12421 29.4357 8.02997 29.4357C8.81526 29.4357 9.60055 29.3563 10.386 29.158C15.4122 28.1662 19.2211 25.1512 21.3807 20.6684ZM28.2918 15.7493C25.3074 12.2186 20.9096 10.2747 15.8834 10.2747H15.2551C14.9017 9.56067 14.1556 9.08455 13.331 9.08455H13.2524C12.0352 9.12425 11.0929 10.1556 11.1321 11.3855C11.1714 12.5756 12.153 13.5277 13.331 13.5277H13.4095C14.2734 13.488 15.0195 12.9326 15.3336 12.1789H16.0404C19.0248 12.1789 21.8519 13.0516 24.4044 14.7575C26.3677 16.0666 27.7813 17.7725 28.5666 19.8353C29.2341 21.5015 29.1948 23.128 28.488 24.5165C27.3886 26.619 25.5431 27.7695 23.1085 27.7695C21.5378 27.7695 20.0457 27.2933 19.2603 26.9363C18.8284 27.333 18.043 27.9677 17.4932 28.3646C19.1818 29.1579 20.9096 29.5943 22.5587 29.5943C26.3284 29.5943 29.1164 27.4917 30.1766 25.3892C31.3153 23.0883 31.2367 19.1212 28.2918 15.7493ZM8.34408 21.3427C8.38338 22.5329 9.36502 23.4849 10.543 23.4849H10.6216C11.8389 23.4453 12.7812 22.4138 12.7419 21.184C12.7028 19.9938 11.721 19.0418 10.543 19.0418H10.4645C10.386 19.0418 10.2681 19.0418 10.1897 19.0814C8.57973 16.3838 7.9122 13.4483 8.14785 10.2746C8.30479 7.89437 9.0902 5.83146 10.4645 4.12558C11.6032 2.65776 13.8022 1.9437 15.2944 1.90412C19.4566 1.82473 21.2236 7.06121 21.3414 9.16382C21.8519 9.28279 22.7158 9.56055 23.3049 9.75891C22.8336 3.33237 18.9069 0 15.1374 0C11.6032 0 8.34408 2.57861 7.0482 6.38697C5.24198 11.4648 6.41997 16.3442 8.6189 20.1923C8.42267 20.4699 8.30479 20.9063 8.34408 21.3427Z" fill="#FFFCDD"/>
</svg>
