<svg width="35" height="34" viewBox="0 0 35 34" fill="none" xmlns="http://www.w3.org/2000/svg">
<path d="M28.8643 22.6366C25.3371 27.1785 17.8057 25.6457 12.9757 25.8652C12.9757 25.8652 12.12 25.9122 11.26 26.0489C11.26 26.0489 11.5857 25.915 12.0014 25.7755C15.3928 24.6417 16.9957 24.4139 19.0571 23.3906C22.9286 21.4738 26.7828 17.2964 27.5671 12.9575C26.0928 17.1307 21.61 20.7226 17.5286 22.1809C14.7357 23.1779 9.68283 24.1473 9.68141 24.1473C9.61276 24.1134 9.54466 24.0784 9.47712 24.0424C6.0414 22.4267 5.9414 15.2319 12.1828 12.9133C14.92 11.8969 17.5357 12.4548 20.4943 11.774C23.6486 11.049 27.3028 8.76353 28.7871 5.77515C30.4514 10.5505 32.4514 18.0187 28.8643 22.6366ZM28.9243 4.29753C28.5252 5.22242 28.0146 6.09849 27.4028 6.90753C26.0731 5.58271 24.4816 4.52955 22.7229 3.81055C20.9641 3.09154 19.0738 2.72132 17.1643 2.72186C9.27426 2.72186 2.85712 8.9251 2.85712 16.5507C2.8562 18.4529 3.2625 20.3346 4.05046 22.0776C4.83843 23.8206 5.991 25.3871 7.43569 26.6786L7.74998 26.9465C7.5209 26.7247 7.39232 26.424 7.39252 26.1106C7.39272 25.7972 7.52168 25.4967 7.75105 25.2751C7.98041 25.0536 8.2914 24.9292 8.61563 24.9293C8.93987 24.9293 9.2508 25.0539 9.48007 25.2755C9.70934 25.4971 9.83817 25.7977 9.83824 26.1111C9.8383 26.4245 9.7096 26.7252 9.48043 26.9469C9.25126 27.1686 8.94037 27.2933 8.61614 27.2935C8.2919 27.2936 7.98086 27.1694 7.75141 26.9479L7.96426 27.1302C10.5363 29.2322 13.7962 30.3841 17.1643 30.381C24.7043 30.381 30.8971 24.708 31.4271 17.5492C31.8186 14.0429 30.7471 9.59072 28.9243 4.29753Z" fill="#FFFCDD"/>
</svg>
